<svg width="23" height="23" viewBox="0 0 23 23" fill="none" xmlns="http://www.w3.org/2000/svg">
<path d="M18.6845 7.65612L11.4999 14.6596L4.31526 7.65612C4.18689 7.53074 4.01457 7.46054 3.83513 7.46054C3.65569 7.46054 3.48337 7.53074 3.35501 7.65612C3.29285 7.71702 3.24347 7.78971 3.20976 7.86993C3.17605 7.95015 3.15869 8.03629 3.15869 8.12331C3.15869 8.21032 3.17605 8.29646 3.20976 8.37669C3.24347 8.45691 3.29285 8.5296 3.35501 8.59049L10.9982 16.0425C11.1324 16.1733 11.3124 16.2466 11.4999 16.2466C11.6873 16.2466 11.8673 16.1733 12.0016 16.0425L19.6448 8.59193C19.7073 8.53099 19.7571 8.45812 19.7911 8.37763C19.825 8.29715 19.8425 8.21067 19.8425 8.12331C19.8425 8.03595 19.825 7.94947 19.7911 7.86898C19.7571 7.78849 19.7073 7.71563 19.6448 7.65468C19.5164 7.5293 19.3441 7.45911 19.1646 7.45911C18.9852 7.45911 18.8129 7.5293 18.6845 7.65468V7.65612Z" fill="#141313"/>
</svg>
