<svg width="20" height="20" viewBox="0 0 20 20" fill="none" xmlns="http://www.w3.org/2000/svg">
<path d="M17.1111 3H3.88889C2.84568 3 2 3.89543 2 5V15C2 16.1046 2.84568 17 3.88889 17H17.1111C18.1543 17 19 16.1046 19 15V5C19 3.89543 18.1543 3 17.1111 3Z" fill="#141313"/>
<path d="M2 5L10.5 11L19 5" fill="#141313"/>
<path d="M19 5C19 3.89543 18.1543 3 17.1111 3H3.88889C2.84568 3 2 3.89543 2 5M19 5V15C19 16.1046 18.1543 17 17.1111 17H3.88889C2.84568 17 2 16.1046 2 15V5M19 5L10.5 11L2 5" stroke="white" stroke-linecap="round" stroke-linejoin="round"/>
</svg>
