<svg width="24" height="24" viewBox="0 0 24 24" fill="none" xmlns="http://www.w3.org/2000/svg">
<path d="M11.9973 8.79854C10.2346 8.79854 8.79602 10.2371 8.79602 11.9999C8.79602 13.7627 10.2346 15.2013 11.9973 15.2013C13.7601 15.2013 15.1986 13.7627 15.1986 11.9999C15.1986 10.2371 13.7601 8.79854 11.9973 8.79854ZM21.5988 11.9999C21.5988 10.6742 21.6108 9.36052 21.5364 8.03723C21.4619 6.50019 21.1113 5.13606 19.9874 4.01211C18.861 2.88574 17.4993 2.53751 15.9623 2.46306C14.6367 2.38861 13.323 2.40062 11.9997 2.40062C10.6741 2.40062 9.36039 2.38861 8.03712 2.46306C6.50011 2.53751 5.13601 2.88815 4.01208 4.01211C2.88574 5.13847 2.53751 6.50019 2.46306 8.03723C2.38861 9.36292 2.40062 10.6766 2.40062 11.9999C2.40062 13.3232 2.38861 14.6393 2.46306 15.9626C2.53751 17.4996 2.88814 18.8637 4.01208 19.9877C5.13842 21.1141 6.50011 21.4623 8.03712 21.5367C9.36279 21.6112 10.6765 21.5992 11.9997 21.5992C13.3254 21.5992 14.6391 21.6112 15.9623 21.5367C17.4993 21.4623 18.8634 21.1117 19.9874 19.9877C21.1137 18.8613 21.4619 17.4996 21.5364 15.9626C21.6132 14.6393 21.5988 13.3256 21.5988 11.9999ZM11.9973 16.9256C9.27153 16.9256 7.07169 14.7257 7.07169 11.9999C7.07169 9.27406 9.27153 7.07417 11.9973 7.07417C14.7231 7.07417 16.923 9.27406 16.923 11.9999C16.923 14.7257 14.7231 16.9256 11.9973 16.9256ZM17.1247 8.02282C16.4883 8.02282 15.9743 7.50887 15.9743 6.87244C15.9743 6.23601 16.4883 5.72206 17.1247 5.72206C17.7611 5.72206 18.275 6.23601 18.275 6.87244C18.2752 7.02356 18.2456 7.17324 18.1879 7.31289C18.1301 7.45255 18.0454 7.57944 17.9385 7.6863C17.8317 7.79316 17.7048 7.87789 17.5651 7.93563C17.4255 7.99338 17.2758 8.02301 17.1247 8.02282Z" fill="#141313"/>
</svg>
