<svg width="20" height="12" viewBox="0 0 20 12" fill="none" xmlns="http://www.w3.org/2000/svg">
<path fill-rule="evenodd" clip-rule="evenodd" d="M19.5417 0.956687C19.68 0.501687 19.5417 0.166687 18.8792 0.166687H16.6917C16.135 0.166687 15.8783 0.455854 15.7392 0.77502C15.7392 0.77502 14.6267 3.43835 13.0508 5.16835C12.5408 5.67002 12.3092 5.82919 12.0308 5.82919C11.8917 5.82919 11.6825 5.67002 11.6825 5.21419V0.956687C11.6825 0.41002 11.5292 0.166687 11.0658 0.166687H7.62583C7.27833 0.166687 7.06917 0.42002 7.06917 0.660854C7.06917 1.17835 7.8575 1.29835 7.93833 2.75502V5.92002C7.93833 6.61419 7.81083 6.74002 7.5325 6.74002C6.79083 6.74002 4.98667 4.06419 3.91583 1.00252C3.70833 0.406687 3.49833 0.166687 2.93917 0.166687H0.75C0.125 0.166687 0 0.455854 0 0.77502C0 1.34335 0.741667 4.16669 3.45417 7.90085C5.2625 10.4509 7.80833 11.8334 10.1275 11.8334C11.5183 11.8334 11.69 11.5267 11.69 10.9975V9.07002C11.69 8.45585 11.8217 8.33335 12.2625 8.33335C12.5875 8.33335 13.1433 8.49335 14.4417 9.72252C15.925 11.18 16.1692 11.8334 17.0042 11.8334H19.1917C19.8167 11.8334 20.13 11.5267 19.95 10.92C19.7517 10.3167 19.0433 9.44085 18.1042 8.40169C17.5942 7.81002 16.8292 7.17252 16.5967 6.85335C16.2725 6.44419 16.365 6.26169 16.5967 5.89752C16.5967 5.89752 19.2633 2.20919 19.5408 0.956687H19.5417Z" fill="#141313"/>
</svg>
